{
  "asset": {
    "generator": "Khronos glTF Blender I/O v4.3.47",
    "version": "2.0"
  },
  "scene": 0,
  "scenes": [
    {
      "name": "Scene",
      "nodes": [
        0,
        1,
        2,
        3,
        4,
        5
      ]
    }
  ],
  "nodes": [
    {
      "mesh": 0,
      "name": "shadeBrown",
      "scale": [
        0.9517155885696411,
        0.9517155885696411,
        0.9517155885696411
      ],
      "translation": [
        0,
        0.9957799315452576,
        0
      ]
    },
    {
      "name": "Cube.001",
      "scale": [
        1.3753670454025269,
        1.3753670454025269,
        1.3753670454025269
      ],
      "translation": [
        0,
        3.243715286254883,
        0
      ]
    },
    {
      "mesh": 1,
      "name": "shadeWhite",
      "scale": [
        0.9517155885696411,
        0.9517155885696411,
        0.9517155885696411
      ],
      "translation": [
        0,
        0.9957799315452576,
        0
      ]
    },
    {
      "mesh": 2,
      "name": "shadeBrown.001",
      "scale": [
        1.3753670454025269,
        1.3753670454025269,
        1.3753670454025269
      ],
      "translation": [
        0,
        3.243715286254883,
        0
      ]
    },
    {
      "mesh": 3,
      "name": "shadeBlue",
      "scale": [
        1.3753670454025269,
        1.3753670454025269,
        1.3753670454025269
      ],
      "translation": [
        0,
        3.243715286254883,
        0
      ]
    },
    {
      "mesh": 4,
      "name": "shadeWhite.001",
      "scale": [
        1.3753670454025269,
        1.3753670454025269,
        1.3753670454025269
      ],
      "translation": [
        0,
        3.243715286254883,
        0
      ]
    }
  ],
  "meshes": [
    {
      "name": "Cube.001",
      "primitives": [
        {
          "attributes": {
            "POSITION": 0,
            "NORMAL": 1,
            "TEXCOORD_0": 2
          },
          "indices": 3
        }
      ]
    },
    {
      "name": "Cube.003",
      "primitives": [
        {
          "attributes": {
            "POSITION": 4,
            "NORMAL": 5,
            "TEXCOORD_0": 6
          },
          "indices": 7
        }
      ]
    },
    {
      "name": "Cube.004",
      "primitives": [
        {
          "attributes": {
            "POSITION": 8,
            "NORMAL": 9,
            "TEXCOORD_0": 10
          },
          "indices": 11
        }
      ]
    },
    {
      "name": "Cube.005",
      "primitives": [
        {
          "attributes": {
            "POSITION": 12,
            "NORMAL": 13,
            "TEXCOORD_0": 14
          },
          "indices": 15
        }
      ]
    },
    {
      "name": "Cube.006",
      "primitives": [
        {
          "attributes": {
            "POSITION": 16,
            "NORMAL": 17,
            "TEXCOORD_0": 18
          },
          "indices": 19
        }
      ]
    }
  ],
  "accessors": [
    {
      "bufferView": 0,
      "componentType": 5126,
      "count": 52,
      "max": [
        1,
        1,
        1
      ],
      "min": [
        -1,
        -1,
        -1
      ],
      "type": "VEC3"
    },
    {
      "bufferView": 1,
      "componentType": 5126,
      "count": 52,
      "type": "VEC3"
    },
    {
      "bufferView": 2,
      "componentType": 5126,
      "count": 52,
      "type": "VEC2"
    },
    {
      "bufferView": 3,
      "componentType": 5123,
      "count": 126,
      "type": "SCALAR"
    },
    {
      "bufferView": 4,
      "componentType": 5126,
      "count": 4,
      "max": [
        0.7024673223495483,
        0.01483603473752737,
        -1
      ],
      "min": [
        -0.35591283440589905,
        -1,
        -1
      ],
      "type": "VEC3"
    },
    {
      "bufferView": 5,
      "componentType": 5126,
      "count": 4,
      "type": "VEC3"
    },
    {
      "bufferView": 6,
      "componentType": 5126,
      "count": 4,
      "type": "VEC2"
    },
    {
      "bufferView": 7,
      "componentType": 5123,
      "count": 6,
      "type": "SCALAR"
    },
    {
      "bufferView": 8,
      "componentType": 5126,
      "count": 8,
      "max": [
        0.689782977104187,
        -0.00026172399520874023,
        0.6525591015815735
      ],
      "min": [
        -0.7539975047111511,
        -0.08948887139558792,
        -0.7082356810569763
      ],
      "type": "VEC3"
    },
    {
      "bufferView": 9,
      "componentType": 5126,
      "count": 8,
      "type": "VEC3"
    },
    {
      "bufferView": 10,
      "componentType": 5126,
      "count": 8,
      "type": "VEC2"
    },
    {
      "bufferView": 11,
      "componentType": 5123,
      "count": 12,
      "type": "SCALAR"
    },
    {
      "bufferView": 12,
      "componentType": 5126,
      "count": 16,
      "max": [
        0.689782977104187,
        0.7372365593910217,
        0.6525591015815735
      ],
      "min": [
        -0.7539975047111511,
        -0.7437352538108826,
        -0.7082356810569763
      ],
      "type": "VEC3"
    },
    {
      "bufferView": 13,
      "componentType": 5126,
      "count": 16,
      "type": "VEC3"
    },
    {
      "bufferView": 14,
      "componentType": 5126,
      "count": 16,
      "type": "VEC2"
    },
    {
      "bufferView": 15,
      "componentType": 5123,
      "count": 24,
      "type": "SCALAR"
    },
    {
      "bufferView": 16,
      "componentType": 5126,
      "count": 310,
      "max": [
        1,
        1,
        1
      ],
      "min": [
        -1,
        -2.3295249938964844,
        -1
      ],
      "type": "VEC3"
    },
    {
      "bufferView": 17,
      "componentType": 5126,
      "count": 310,
      "type": "VEC3"
    },
    {
      "bufferView": 18,
      "componentType": 5126,
      "count": 310,
      "type": "VEC2"
    },
    {
      "bufferView": 19,
      "componentType": 5123,
      "count": 996,
      "type": "SCALAR"
    }
  ],
  "bufferViews": [
    {
      "buffer": 0,
      "byteLength": 624,
      "byteOffset": 0,
      "target": 34962
    },
    {
      "buffer": 0,
      "byteLength": 624,
      "byteOffset": 624,
      "target": 34962
    },
    {
      "buffer": 0,
      "byteLength": 416,
      "byteOffset": 1248,
      "target": 34962
    },
    {
      "buffer": 0,
      "byteLength": 252,
      "byteOffset": 1664,
      "target": 34963
    },
    {
      "buffer": 0,
      "byteLength": 48,
      "byteOffset": 1916,
      "target": 34962
    },
    {
      "buffer": 0,
      "byteLength": 48,
      "byteOffset": 1964,
      "target": 34962
    },
    {
      "buffer": 0,
      "byteLength": 32,
      "byteOffset": 2012,
      "target": 34962
    },
    {
      "buffer": 0,
      "byteLength": 12,
      "byteOffset": 2044,
      "target": 34963
    },
    {
      "buffer": 0,
      "byteLength": 96,
      "byteOffset": 2056,
      "target": 34962
    },
    {
      "buffer": 0,
      "byteLength": 96,
      "byteOffset": 2152,
      "target": 34962
    },
    {
      "buffer": 0,
      "byteLength": 64,
      "byteOffset": 2248,
      "target": 34962
    },
    {
      "buffer": 0,
      "byteLength": 24,
      "byteOffset": 2312,
      "target": 34963
    },
    {
      "buffer": 0,
      "byteLength": 192,
      "byteOffset": 2336,
      "target": 34962
    },
    {
      "buffer": 0,
      "byteLength": 192,
      "byteOffset": 2528,
      "target": 34962
    },
    {
      "buffer": 0,
      "byteLength": 128,
      "byteOffset": 2720,
      "target": 34962
    },
    {
      "buffer": 0,
      "byteLength": 48,
      "byteOffset": 2848,
      "target": 34963
    },
    {
      "buffer": 0,
      "byteLength": 3720,
      "byteOffset": 2896,
      "target": 34962
    },
    {
      "buffer": 0,
      "byteLength": 3720,
      "byteOffset": 6616,
      "target": 34962
    },
    {
      "buffer": 0,
      "byteLength": 2480,
      "byteOffset": 10336,
      "target": 34962
    },
    {
      "buffer": 0,
      "byteLength": 1992,
      "byteOffset": 12816,
      "target": 34963
    }
  ],
  "buffers": [
    {
      "uri": "sosyalinavasyonajans_data.bin",
      "byteLength": 14808
    }
  ]
}